<?xml version="1.0" standalone="no"?>
<!DOCTYPE svg PUBLIC "-//W3C//DTD SVG 20010904//EN"
 "http://www.w3.org/TR/2001/REC-SVG-20010904/DTD/svg10.dtd">
<svg version="1.0" xmlns="http://www.w3.org/2000/svg"
 width="2048.000000pt" height="2048.000000pt" viewBox="0 0 2048.000000 2048.000000"
 preserveAspectRatio="xMidYMid meet">
<metadata>
Created by potrace 1.11, written by Peter Selinger 2001-2013
</metadata>
<g transform="translate(0.000000,2048.000000) scale(0.100000,-0.100000)"
fill="#000000" stroke="none">
<path d="M0 10240 l0 -10240 10240 0 10240 0 0 10240 0 10240 -10240 0 -10240
0 0 -10240z m10396 7253 c420 -415 1873 -1853 2309 -2284 264 -262 628 -623
810 -802 l330 -327 157 0 c183 0 172 -8 167 124 -1 44 -2 116 -1 159 l2 77
1130 0 1130 0 2 -1347 c3 -994 6 -1357 15 -1380 10 -27 9 -33 -3 -33 -11 0
-14 -17 -14 -80 l0 -80 43 0 c42 0 45 -2 63 -42 10 -22 31 -58 46 -79 14 -20
25 -39 22 -41 -2 -3 326 -330 729 -728 402 -398 802 -794 887 -879 86 -86 337
-336 558 -556 l402 -400 -1322 -3 -1322 -2 -43 -42 c-33 -33 -43 -50 -43 -75
l0 -33 56 0 55 0 -24 -33 c-14 -17 -35 -52 -47 -77 -13 -25 -27 -47 -31 -51
-5 -3 -9 -1212 -9 -2707 l0 -2702 -2936 0 c-2248 0 -2957 -3 -3032 -12 -131
-17 -873 -17 -1004 0 -74 9 -731 12 -2786 12 l-2689 0 -5 57 c-3 32 -5 1249
-4 2706 1 2177 -1 2647 -12 2647 -7 0 -19 15 -27 33 -8 17 -28 52 -44 77 l-31
45 55 3 c55 3 55 3 55 35 0 25 -10 42 -43 75 l-43 42 -1324 0 -1324 0 232 234
c128 128 232 239 232 245 0 6 5 11 12 11 7 0 82 69 168 154 85 85 373 370 640
633 948 936 1467 1449 1600 1583 74 74 511 506 970 959 459 454 900 890 980
971 80 80 516 512 970 960 454 447 899 889 990 980 91 91 527 524 970 961 443
437 892 881 999 987 108 105 198 192 202 192 3 0 82 -75 175 -167z"/>
<path d="M10212 17040 c-43 -5 -59 -12 -89 -43 l-38 -37 133 0 c72 0 132 1
132 3 0 2 -19 21 -42 43 -42 39 -45 40 -96 34z"/>
<path d="M10127 16899 c-42 -10 -94 -35 -164 -79 -27 -17 -194 -175 -373 -352
-179 -177 -543 -538 -810 -802 -267 -264 -703 -696 -970 -960 -621 -615 -1326
-1312 -1940 -1920 -267 -264 -701 -694 -965 -956 -1654 -1639 -2228 -2206
-2241 -2213 -8 -5 -12 -12 -9 -17 3 -4 -6 -32 -20 -62 -14 -29 -25 -63 -25
-75 0 -21 -5 -23 -58 -23 -51 0 -62 -4 -85 -28 -31 -32 -33 -49 -13 -97 l15
-35 106 0 c89 0 111 -3 134 -19 26 -19 103 -47 151 -55 14 -3 366 -5 783 -5
l757 -1 0 -2674 c0 -2352 2 -2677 15 -2702 8 -16 15 -36 15 -44 0 -8 11 -34
25 -58 l24 -42 -40 0 -39 0 0 -58 c0 -48 4 -62 23 -80 21 -20 34 -22 133 -22
81 -1 123 -6 164 -20 54 -19 105 -19 2156 -20 1368 0 2119 4 2155 10 30 6 65
13 79 17 14 3 123 8 243 10 l218 5 11 24 c11 23 7 30 -42 79 -53 54 -56 55
-111 55 l-57 0 0 51 c-1 30 -8 62 -18 77 -9 15 -156 165 -326 334 -244 242
-318 310 -351 322 -40 14 -40 14 -12 15 l30 1 -51 51 -51 51 -620 1 -620 2
-206 -205 c-114 -113 -211 -206 -216 -208 -10 -3 -641 620 -641 634 0 13 623
644 635 644 5 0 90 -80 189 -178 l181 -179 75 -11 c81 -12 148 -4 199 23 24
12 68 15 209 15 l180 0 7 36 c6 34 3 40 -36 80 l-43 44 -92 0 -92 0 10 37 c5
20 8 56 6 80 -2 23 0 43 5 43 4 0 -172 180 -392 400 -353 353 -404 400 -431
400 -17 0 -58 14 -92 31 l-61 31 -58 -58 -58 -57 -38 33 c-21 18 -168 164
-326 323 l-288 291 323 323 323 323 325 -325 325 -325 -58 -58 -58 -58 36 -72
c19 -39 35 -74 35 -76 0 -3 -9 -6 -21 -8 -31 -5 813 -843 859 -853 42 -9 100
1 179 31 50 19 83 24 153 24 l90 0 0 80 c0 77 -1 80 -23 80 -23 0 -23 3 -23
80 1 76 2 80 23 80 17 0 23 6 23 23 0 16 -63 85 -220 242 -121 121 -220 224
-220 229 0 5 145 152 322 328 l322 319 323 -323 323 -323 -219 -220 -219 -221
-3 -104 c-7 -269 -1 -902 8 -909 8 -5 43 -131 43 -155 0 -4 -11 -6 -25 -6 -24
0 -25 -3 -25 -58 0 -48 4 -62 23 -80 13 -12 35 -22 49 -22 22 0 29 -7 39 -38
8 -27 55 -81 169 -194 l157 -158 74 1 c56 0 94 7 159 31 47 16 113 32 148 35
l62 5 0 1109 c0 856 -3 1109 -12 1109 -9 0 -9 3 0 12 7 7 12 43 12 90 l0 78
-67 0 -68 1 -63 77 -63 77 47 3 47 3 -79 80 c-48 49 -87 79 -100 79 -14 0 -33
18 -59 58 -22 32 -288 308 -619 640 -510 511 -584 582 -611 582 -16 0 -59 9
-95 20 -36 11 -129 34 -208 50 l-143 30 -406 0 c-541 0 -483 18 -738 -232
l-190 -186 -322 326 -323 325 325 322 325 322 235 -233 234 -234 296 0 295 0
0 65 0 65 -166 0 -165 0 24 33 c14 17 34 53 45 79 l21 47 90 3 91 3 -485 485
-485 485 0 680 -1 680 -209 210 -210 210 325 325 325 325 320 -320 c176 -176
320 -322 320 -326 0 -3 -103 -111 -230 -240 -160 -163 -229 -241 -230 -256 0
-13 4 -23 10 -23 6 0 6 -9 0 -26 -6 -15 -10 -219 -10 -509 0 -466 1 -485 21
-531 13 -31 16 -50 10 -52 -10 -3 328 -347 546 -554 50 -49 88 -88 85 -88 -4
-1 31 -37 78 -80 l85 -80 148 0 147 0 0 80 0 80 -162 0 -163 0 56 24 c81 33
123 61 150 101 22 32 28 35 72 35 l47 0 0 80 0 80 -33 0 c-33 0 -34 0 -46 68
l-12 67 -177 177 -176 177 79 83 c44 46 190 193 324 327 l243 244 323 -323
324 -324 -193 -197 c-167 -170 -196 -204 -211 -248 -9 -28 -21 -51 -26 -51 -5
0 -9 -162 -9 -397 0 -312 3 -415 15 -476 18 -95 18 -87 0 -87 -12 0 -15 -15
-15 -79 l0 -80 36 -3 c35 -3 36 -4 60 -78 13 -41 24 -76 24 -77 0 -2 -7 -3
-16 -3 -9 0 187 -203 436 -450 426 -425 453 -450 488 -451 105 -3 211 23 299
72 29 16 66 29 83 29 l30 0 0 1703 0 1702 -25 53 c-14 30 -25 56 -25 58 0 2
11 4 25 4 23 0 25 4 25 43 0 37 -6 48 -38 80 -24 23 -47 37 -63 37 -21 0 -31
10 -54 53 -20 37 -107 130 -299 319 -258 255 -273 268 -309 268 -20 0 -71 14
-113 32 l-75 31 -70 -69 -70 -69 -319 321 c-176 176 -320 325 -320 330 0 5
144 153 320 329 l320 320 325 -325 325 -325 -45 -45 c-24 -25 -44 -48 -45 -52
0 -5 9 -17 20 -28 12 -12 18 -25 15 -30 -3 -4 -2 -10 3 -12 16 -6 52 -88 39
-88 -6 0 96 -108 228 -240 l240 -240 183 0 184 0 240 240 c219 220 237 240
210 240 -32 0 -38 18 -14 42 7 7 12 18 12 25 0 7 5 13 12 13 6 0 9 3 5 6 -3 4
0 13 8 21 19 19 7 43 -53 105 l-45 46 323 321 322 321 107 -99 c58 -54 204
-199 324 -321 l218 -221 -52 -57 c-29 -31 -174 -178 -322 -325 l-270 -268 -36
33 c-20 18 -48 44 -63 57 l-27 23 -34 -21 c-22 -14 -51 -21 -82 -21 l-48 0
-269 -271 c-188 -190 -276 -285 -293 -320 -21 -41 -30 -49 -53 -49 -19 0 -39
-11 -60 -33 -27 -28 -32 -41 -32 -80 0 -41 3 -47 21 -47 16 0 19 -4 14 -22 -4
-13 -14 -34 -23 -48 -14 -23 -16 -200 -15 -1890 0 -1026 1 -2156 2 -2512 l1
-648 45 0 c26 0 63 -9 84 -20 54 -27 186 -60 242 -60 40 0 55 6 96 39 87 69
282 278 299 321 13 33 21 40 43 40 46 0 71 37 71 103 0 56 -1 57 -28 57 l-28
0 15 80 c10 51 20 80 28 80 10 0 13 88 13 454 0 271 -4 465 -10 480 -6 17 -6
26 0 26 6 0 10 15 10 34 0 30 -9 43 -75 103 -41 37 -141 137 -221 221 l-147
154 319 319 c175 175 322 319 325 319 4 0 152 -144 330 -321 l323 -320 -222
-222 c-198 -198 -222 -226 -222 -255 0 -25 4 -32 19 -32 17 0 20 -9 23 -80 3
-77 2 -80 -19 -80 -22 0 -23 -4 -23 -80 l0 -80 83 0 c67 0 96 -5 148 -26 87
-36 190 -39 234 -7 17 12 144 136 282 275 236 237 255 259 288 330 l35 77 0
395 0 396 -37 0 c-36 1 -40 4 -85 78 l-47 77 30 3 29 3 -72 80 c-40 43 -77 79
-83 79 -5 0 -59 54 -119 121 -160 176 -255 258 -361 312 l-90 46 45 0 45 1
-48 47 -47 48 -90 -90 -90 -90 -325 325 -325 325 325 325 325 325 325 -325
325 -325 -36 -36 c-25 -26 -32 -38 -22 -42 8 -3 5 -6 -7 -6 -12 -1 -42 -23
-68 -49 l-47 -48 33 -32 33 -32 242 0 242 0 0 80 0 80 -27 0 -27 0 27 28 27
28 0 506 c0 305 -4 517 -10 532 -6 17 -6 26 0 26 6 0 10 13 10 29 0 24 -15 44
-84 106 -46 42 -150 146 -231 231 l-147 154 322 320 323 321 116 -113 c64 -62
209 -206 323 -321 l208 -209 -155 -162 c-86 -89 -180 -184 -210 -210 l-55 -47
0 -582 0 -581 27 -28 27 -28 -27 0 -27 0 0 -80 0 -80 243 0 243 0 32 33 32 33
-48 47 c-26 26 -57 47 -67 48 -13 0 -15 3 -7 6 10 4 3 16 -22 42 l-36 36 324
324 324 324 174 -167 c95 -93 241 -239 325 -325 l152 -158 -324 -323 -324
-324 -87 87 c-48 48 -90 87 -93 87 -4 0 -27 -20 -51 -45 l-44 -45 44 -1 45 0
-95 -49 c-89 -45 -106 -59 -272 -228 -98 -98 -178 -184 -178 -191 0 -6 -6 -11
-13 -11 -7 0 -48 -36 -91 -79 l-79 -80 31 -3 32 -3 -47 -77 c-46 -75 -49 -78
-85 -78 l-38 0 0 -520 0 -521 -361 -359 c-199 -198 -354 -360 -346 -360 10 0
16 -17 20 -63 3 -34 9 -70 12 -80 7 -15 -2 -17 -97 -17 -102 0 -105 -1 -132
-29 -27 -28 -28 -33 -20 -78 l9 -48 157 -5 157 -5 36 -43 37 -42 503 0 504 0
73 26 c71 26 78 32 271 223 l197 196 325 -325 325 -325 -324 -324 -325 -325
-224 222 -223 222 -1057 0 -1057 0 -551 -550 c-450 -450 -545 -550 -525 -550
25 0 24 -3 -32 -80 -50 -69 -61 -79 -88 -80 l-31 0 -5 -200 c-3 -110 -3 -290
0 -400 l5 -200 56 0 c32 0 61 -4 66 -9 24 -23 177 -62 241 -62 l68 0 290 290
291 291 636 0 c620 0 637 1 700 21 61 20 73 30 256 212 l191 190 200 -194
c110 -107 256 -253 325 -325 l126 -131 -323 -322 -322 -322 -234 233 -235 233
-572 0 -573 0 -390 -390 c-405 -406 -397 -396 -399 -482 l-1 -33 -59 0 c-57 0
-59 -1 -109 -54 -54 -57 -61 -92 -18 -101 11 -2 113 -6 226 -8 113 -2 216 -7
230 -11 14 -4 50 -11 80 -16 34 -6 953 -10 2380 -10 2131 0 2330 2 2380 17 30
9 110 19 176 22 114 6 123 8 143 31 15 18 20 39 21 78 l0 52 -40 0 -39 0 23
48 c13 26 27 62 31 79 4 18 11 33 16 33 5 0 9 1054 9 2680 l0 2679 788 3 c750
3 789 4 832 22 25 11 57 28 72 38 21 15 46 18 131 18 l105 0 17 50 c16 48 16
51 -5 80 -20 28 -26 30 -85 30 l-63 0 -6 34 c-4 19 -17 54 -31 79 -13 26 -19
47 -14 49 6 2 -20 32 -58 68 -37 35 -436 428 -885 874 l-818 809 0 1116 c0
1139 -1 1148 -36 1269 -5 18 -2 22 15 22 20 0 21 5 21 80 l0 80 -77 0 c-68 0
-81 3 -124 30 -26 17 -73 41 -106 53 -56 21 -71 22 -418 22 -347 0 -362 -1
-418 -22 -33 -12 -80 -36 -106 -53 -43 -27 -56 -30 -124 -30 l-77 0 0 -80 c0
-77 1 -80 24 -80 23 0 23 0 10 -52 -8 -29 -14 -62 -14 -75 0 -12 -5 -25 -11
-28 -6 -5 -10 -41 -9 -94 1 -47 2 -230 1 -405 l-1 -319 -245 244 c-135 134
-251 246 -258 248 -18 5 -167 153 -162 161 2 4 -35 45 -83 91 -134 129 -1666
1642 -1852 1829 -420 423 -1448 1432 -1471 1444 -14 7 -44 25 -65 40 -81 55
-209 78 -307 55z"/>
<path d="M8685 13130 c-3 -5 1 -10 10 -10 9 0 13 5 10 10 -3 6 -8 10 -10 10
-2 0 -7 -4 -10 -10z"/>
<path d="M11175 13130 c-3 -5 1 -10 10 -10 9 0 13 5 10 10 -3 6 -8 10 -10 10
-2 0 -7 -4 -10 -10z"/>
<path d="M8482 12927 l-32 -33 48 -47 48 -47 87 0 c70 0 85 3 81 14 -6 16 12
56 30 68 20 14 66 8 105 -12 l38 -19 22 23 21 22 -33 32 -33 32 -175 0 -175 0
-32 -33z"/>
<path d="M10975 12930 l-29 -30 28 -29 28 -29 34 20 c39 23 95 28 117 9 9 -7
19 -26 22 -42 l7 -29 77 0 77 0 47 48 47 48 -33 32 -33 32 -180 0 -180 0 -29
-30z"/>
<path d="M6565 12220 l-59 -60 119 0 119 0 -59 60 c-33 33 -60 60 -60 60 0 0
-27 -27 -60 -60z"/>
<path d="M12675 12220 l-59 -60 119 0 119 0 -59 60 c-33 33 -60 60 -60 60 0 0
-27 -27 -60 -60z"/>
<path d="M6505 11920 c76 -77 81 -80 125 -80 44 0 49 3 125 80 l80 80 -205 0
-205 0 80 -80z"/>
<path d="M9978 11993 c7 -3 16 -2 19 1 4 3 -2 6 -13 5 -11 0 -14 -3 -6 -6z"/>
<path d="M12605 11920 c77 -77 81 -80 126 -80 44 0 50 4 130 80 l84 79 -210 1
-210 0 80 -80z"/>
<path d="M7962 10647 c-40 -40 -69 -76 -66 -80 10 -9 474 -9 474 0 0 4 -33 40
-72 80 l-72 73 -96 0 -96 0 -72 -73z"/>
<path d="M11445 10640 l-80 -80 163 0 164 0 -74 80 c-40 44 -78 80 -83 80 -6
0 -46 -36 -90 -80z"/>
<path d="M13895 10640 l-80 -80 170 0 170 0 -80 80 c-44 44 -84 80 -90 80 -6
0 -46 -36 -90 -80z"/>
<path d="M8100 10365 l34 -35 33 32 c18 18 33 33 33 35 0 2 -30 3 -67 3 l-67
0 34 -35z"/>
<path d="M11452 10323 l77 -77 31 29 c27 26 28 30 15 45 -8 9 -20 31 -26 48
l-11 32 -81 0 -82 0 77 -77z"/>
<path d="M13956 10357 c-11 -23 -21 -45 -23 -48 -2 -4 7 -20 21 -35 l25 -29
78 78 78 77 -80 0 -80 0 -19 -43z"/>
<path d="M12280 10025 c37 -38 60 -53 70 -49 8 4 56 22 105 39 58 21 91 38 93
49 3 14 -14 16 -159 16 l-163 0 54 -55z"/>
<path d="M12962 10064 c2 -11 35 -28 93 -49 50 -17 97 -35 105 -39 10 -4 33
11 70 49 l54 55 -163 0 c-145 0 -162 -2 -159 -16z"/>
<path d="M6320 9005 l-44 -45 94 0 94 0 -44 45 c-24 25 -47 45 -50 45 -3 0
-26 -20 -50 -45z"/>
<path d="M6215 8720 l80 -80 75 0 75 0 80 80 80 80 -235 0 -235 0 80 -80z"/>
<path d="M11220 8695 l-54 -55 109 0 109 0 -54 55 c-30 30 -55 55 -55 55 0 0
-25 -25 -55 -55z"/>
<path d="M11138 8400 c82 -79 84 -80 135 -80 52 0 53 0 132 80 l80 80 -215 0
-215 -1 83 -79z"/>
<path d="M9472 7760 l83 -79 113 -1 112 0 0 80 0 80 -196 0 -195 0 83 -80z"/>
<path d="M11480 7467 l0 -54 112 -7 112 -7 60 61 61 60 -173 0 -172 0 0 -53z"/>
<path d="M6610 7055 c-11 -13 -8 -15 20 -15 28 0 31 2 20 15 -7 8 -16 15 -20
15 -4 0 -13 -7 -20 -15z"/>
<path d="M6410 6855 l-24 -25 54 -55 54 -55 83 0 c81 0 83 1 83 24 0 52 52 71
112 40 30 -16 31 -15 61 15 l31 30 -24 26 -23 25 -192 0 -192 0 -23 -25z"/>
<path d="M13807 6812 c-53 -53 -65 -70 -55 -80 9 -9 72 -12 229 -12 273 0 276
2 174 96 l-70 64 -105 0 -106 0 -67 -68z"/>
<path d="M8640 6765 l-44 -45 94 0 94 0 -44 45 c-24 25 -47 45 -50 45 -3 0
-26 -20 -50 -45z"/>
<path d="M8545 6480 l80 -80 65 0 65 0 85 80 85 79 -230 1 -230 0 80 -80z"/>
<path d="M13953 6533 l27 -28 27 28 28 27 -55 0 -55 0 28 -27z"/>
<path d="M10190 6172 l0 -67 65 -13 c118 -22 121 -21 210 68 l80 80 -178 0
-177 0 0 -68z"/>
<path d="M8210 5536 l66 -64 44 9 c25 4 73 8 108 9 l62 0 0 55 0 55 -172 0
-173 0 65 -64z"/>
<path d="M6762 4887 c-39 -40 -72 -76 -72 -80 0 -4 106 -7 235 -7 129 0 235 3
235 7 0 4 -33 40 -72 80 l-72 73 -91 0 -91 0 -72 -73z"/>
<path d="M12865 4880 l-80 -80 210 0 210 0 -80 80 c-78 79 -80 80 -130 80 -50
0 -52 -1 -130 -80z"/>
<path d="M6893 4603 l37 -38 37 38 38 37 -75 0 -75 0 38 -37z"/>
<path d="M12933 4583 l57 -58 57 58 58 57 -115 0 -115 0 58 -57z"/>
<path d="M9505 4240 c44 -44 85 -80 91 -80 6 0 50 18 98 40 l86 41 0 39 0 40
-177 0 -178 0 80 -80z"/>
<path d="M10190 4275 c0 -25 5 -45 10 -45 6 0 44 -16 84 -35 41 -19 78 -35 83
-35 5 0 44 36 88 80 l80 80 -173 0 -172 0 0 -45z"/>
</g>
</svg>
